<svg width="100" height="133" viewBox="0 0 100 133" fill="none" xmlns="http://www.w3.org/2000/svg">
<path d="M47.4551 2.98475V29.0407C47.4551 32.1297 52.2551 32.1347 52.2551 29.0407V2.98475C52.2551 -0.103255 47.4551 -0.108254 47.4551 2.98475Z" fill="#F8F8F8"/>
<path d="M47.3999 120.967V129.934C47.3999 130.57 47.6528 131.181 48.1028 131.631C48.5529 132.081 49.1634 132.334 49.7999 132.334C50.4364 132.334 51.0469 132.081 51.497 131.631C51.9471 131.181 52.1999 130.57 52.1999 129.934V120.967C52.1999 120.33 51.9471 119.72 51.497 119.27C51.0469 118.82 50.4364 118.567 49.7999 118.567C49.1634 118.567 48.5529 118.82 48.1028 119.27C47.6528 119.72 47.3999 120.33 47.3999 120.967Z" fill="#F8F8F8"/>
<path d="M32.7478 119.208L29.2818 126.215C28.9716 126.779 28.8852 127.439 29.0398 128.064C29.165 128.519 29.4218 128.928 29.7781 129.238C30.1344 129.548 30.5743 129.746 31.0427 129.808C31.5111 129.869 31.9872 129.791 32.4113 129.583C32.8355 129.374 33.1887 129.046 33.4268 128.638L36.8929 121.631C37.2031 121.067 37.2895 120.407 37.1349 119.782C37.0097 119.326 36.7529 118.918 36.3966 118.608C36.0403 118.297 35.6004 118.099 35.132 118.038C34.6635 117.977 34.1874 118.055 33.7633 118.263C33.3392 118.471 32.986 118.8 32.7478 119.208Z" fill="#F8F8F8"/>
<path d="M62.7101 121.631L66.2741 128.837C66.5982 129.383 67.1247 129.78 67.7394 129.941C68.354 130.102 69.0075 130.015 69.5581 129.698C70.096 129.366 70.4856 128.84 70.6459 128.228C70.8062 127.617 70.725 126.967 70.4191 126.414L66.8541 119.208C66.5301 118.661 66.0038 118.264 65.3893 118.103C64.7748 117.942 64.1216 118.03 63.5711 118.347C63.0331 118.679 62.6436 119.205 62.4833 119.816C62.323 120.428 62.4042 121.078 62.7101 121.631Z" fill="#F8F8F8"/>
<path d="M49.8721 37.8528C38.5725 37.7592 27.6571 41.9506 19.3241 49.5828C10.6641 57.4318 4.98209 68.2658 2.05909 79.4828C1.25685 82.6088 0.649008 85.7816 0.239086 88.9828C0.00208592 90.7828 -0.323906 92.5428 1.18209 93.9008C1.84698 94.4608 2.68781 94.7688 3.55709 94.7708C5.32709 94.8558 7.12109 94.7708 8.89109 94.7708H94.4911C95.0581 94.7708 95.6331 94.7998 96.1991 94.7708C97.1665 94.7659 98.0942 94.3859 98.7871 93.7108C100.146 92.2868 99.6951 90.4108 99.4611 88.6638C97.8521 76.6638 93.4961 65.0158 85.9321 55.4848C79.0971 46.8728 69.3801 40.4848 58.4741 38.5668C55.6356 38.0633 52.7567 37.8236 49.8741 37.8508C46.7871 37.8818 46.7741 42.6818 49.8741 42.6508C60.0667 42.5372 69.9127 46.3471 77.3741 53.2918C85.3541 60.6728 90.4741 70.6548 93.1471 81.1048C93.876 83.9367 94.4281 86.8113 94.8001 89.7118C94.8127 90.0813 94.8555 90.4492 94.9281 90.8118L94.9681 91.1798C96.4427 90.3738 96.8801 89.9711 96.2801 89.9718C96.2561 89.9648 96.2261 89.9778 96.2011 89.9718C96.0016 89.9514 95.8006 89.9514 95.6011 89.9718H4.07508C3.90281 89.9553 3.72937 89.9553 3.55709 89.9718C3.52909 89.9778 3.49308 89.9638 3.46508 89.9718C4.37108 91.4531 4.82343 91.7331 4.82209 90.8118C4.91957 90.3293 4.97775 89.8397 4.99609 89.3478C7.74309 68.6328 20.4081 47.1878 42.3961 43.2238C44.8672 42.7979 47.373 42.6064 49.8801 42.6518C52.9611 42.6838 52.9641 37.8838 49.8721 37.8528Z" fill="#F8F8F8"/>
<path d="M49.8372 37.6708C38.5376 37.5773 27.6222 41.7686 19.2892 49.4008C10.6292 57.2498 4.94718 68.0838 2.02418 79.3008C1.22193 82.4269 0.614096 85.5996 0.204174 88.8008C-0.0328262 90.6008 -0.358818 92.3608 1.14718 93.7188C1.81207 94.2788 2.6529 94.5868 3.52218 94.5888C5.29218 94.6738 7.08618 94.5888 8.85618 94.5888H94.4562C95.0232 94.5888 95.5982 94.6178 96.1642 94.5888C97.1316 94.584 98.0593 94.204 98.7522 93.5288C100.111 92.1048 99.6602 90.2288 99.4262 88.4818C97.8172 76.4818 93.4612 64.8338 85.8972 55.3028C79.0622 46.6908 69.3452 40.3028 58.4392 38.3848C55.6007 37.8813 52.7218 37.6417 49.8392 37.6688C46.7522 37.6998 46.7392 42.4998 49.8392 42.4688C60.0317 42.3552 69.8778 46.1651 77.3392 53.1098C85.3192 60.4908 90.4392 70.4728 93.1122 80.9228C93.8411 83.7548 94.3931 86.6293 94.7652 89.5298C94.7778 89.8994 94.8206 90.2673 94.8932 90.6298L94.9332 90.9978C96.4078 90.1918 96.8452 89.7892 96.2452 89.7898C96.2212 89.7828 96.1912 89.7958 96.1662 89.7898C95.9667 89.7695 95.7657 89.7695 95.5662 89.7898H4.04017C3.8679 89.7733 3.69445 89.7733 3.52218 89.7898C3.49418 89.7958 3.45817 89.7818 3.43017 89.7898C4.33617 91.2712 4.78852 91.5512 4.78718 90.6298C4.88466 90.1473 4.94284 89.6577 4.96118 89.1658C7.70818 68.4508 20.3732 47.0058 42.3612 43.0418C44.8323 42.616 47.3381 42.4245 49.8452 42.4698C52.9262 42.5018 52.9292 37.7018 49.8372 37.6708Z" fill="#F8F8F8"/>
<path d="M63.8001 92.3668C63.7984 94.2099 63.4193 96.0332 62.6861 97.7243C61.953 99.4153 60.8813 100.938 59.5372 102.199C58.193 103.461 56.6049 104.433 54.8706 105.057C53.1363 105.681 51.2926 105.943 49.4531 105.828C45.8481 105.849 42.3764 104.467 39.7731 101.973C37.3113 99.3773 35.927 95.9439 35.9001 92.3668C35.7891 89.2868 30.9881 89.2718 31.1001 92.3668C31.3771 100.077 35.6561 106.861 43.0401 109.512C50.0951 112.043 58.6951 110.328 63.7871 104.72C66.8043 101.302 68.51 96.9246 68.6001 92.3668C68.7291 89.2778 63.9291 89.2838 63.8001 92.3668Z" fill="#F8F8F8"/>
</svg>
