<svg width="100" height="132" viewBox="0 0 100 132" fill="none" xmlns="http://www.w3.org/2000/svg">
<path d="M47.4551 2.31788V28.3739C47.4551 31.4629 52.2551 31.4679 52.2551 28.3739V2.31788C52.2551 -0.770125 47.4551 -0.775125 47.4551 2.31788Z" fill="#1E1E1E"/>
<path d="M47.3999 120.3V129.267C47.3999 129.903 47.6528 130.514 48.1028 130.964C48.5529 131.414 49.1634 131.667 49.7999 131.667C50.4364 131.667 51.0469 131.414 51.497 130.964C51.9471 130.514 52.1999 129.903 52.1999 129.267V120.3C52.1999 119.663 51.9471 119.053 51.497 118.603C51.0469 118.153 50.4364 117.9 49.7999 117.9C49.1634 117.9 48.5529 118.153 48.1028 118.603C47.6528 119.053 47.3999 119.663 47.3999 120.3Z" fill="#1E1E1E"/>
<path d="M32.7478 118.541L29.2818 125.548C28.9716 126.112 28.8852 126.772 29.0398 127.397C29.165 127.852 29.4218 128.261 29.7781 128.571C30.1344 128.881 30.5743 129.079 31.0427 129.141C31.5111 129.202 31.9872 129.124 32.4113 128.916C32.8355 128.708 33.1887 128.379 33.4268 127.971L36.8929 120.964C37.2031 120.4 37.2895 119.74 37.1349 119.115C37.0097 118.659 36.7529 118.251 36.3966 117.941C36.0403 117.63 35.6004 117.432 35.132 117.371C34.6635 117.31 34.1874 117.388 33.7633 117.596C33.3392 117.804 32.986 118.133 32.7478 118.541Z" fill="#1E1E1E"/>
<path d="M62.7101 120.964L66.2741 128.17C66.5982 128.716 67.1247 129.113 67.7394 129.274C68.354 129.436 69.0075 129.348 69.5581 129.031C70.096 128.699 70.4856 128.173 70.6459 127.561C70.8062 126.95 70.725 126.3 70.4191 125.747L66.8541 118.541C66.5301 117.994 66.0038 117.598 65.3893 117.436C64.7748 117.275 64.1216 117.363 63.5711 117.68C63.0331 118.012 62.6436 118.538 62.4833 119.15C62.323 119.761 62.4042 120.411 62.7101 120.964Z" fill="#1E1E1E"/>
<path d="M49.8721 37.1859C38.5725 37.0924 27.6571 41.2837 19.3241 48.9159C10.6641 56.7649 4.98209 67.5989 2.05909 78.8159C1.25685 81.942 0.649008 85.1147 0.239086 88.3159C0.00208592 90.1159 -0.323906 91.8759 1.18209 93.2339C1.84698 93.7939 2.68781 94.1019 3.55709 94.1039C5.32709 94.1889 7.12109 94.1039 8.89109 94.1039H94.4911C95.0581 94.1039 95.6331 94.1329 96.1991 94.1039C97.1665 94.0991 98.0942 93.7191 98.7871 93.0439C100.146 91.6199 99.6951 89.7439 99.4611 87.9969C97.8521 75.9969 93.4961 64.3489 85.9321 54.8179C79.0971 46.2059 69.3801 39.8179 58.4741 37.8999C55.6356 37.3964 52.7567 37.1567 49.8741 37.1839C46.7871 37.2149 46.7741 42.0149 49.8741 41.9839C60.0667 41.8703 69.9127 45.6802 77.3741 52.6249C85.3541 60.0059 90.4741 69.9879 93.1471 80.4379C93.876 83.2699 94.4281 86.1444 94.8001 89.0449C94.8127 89.4144 94.8555 89.7823 94.9281 90.1449L94.9681 90.5129C96.4427 89.7069 96.8801 89.3042 96.2801 89.3049C96.2561 89.2979 96.2261 89.3109 96.2011 89.3049C96.0016 89.2846 95.8006 89.2846 95.6011 89.3049H4.07508C3.90281 89.2884 3.72937 89.2884 3.55709 89.3049C3.52909 89.3109 3.49308 89.2969 3.46508 89.3049C4.37108 90.7862 4.82343 91.0662 4.82209 90.1449C4.91957 89.6624 4.97775 89.1728 4.99609 88.6809C7.74309 67.9659 20.4081 46.5209 42.3961 42.5569C44.8672 42.131 47.373 41.9395 49.8801 41.9849C52.9611 42.0169 52.9641 37.2169 49.8721 37.1859Z" fill="#1E1E1E"/>
<path d="M49.8372 37.004C38.5376 36.9104 27.6222 41.1018 19.2892 48.734C10.6292 56.583 4.94718 67.417 2.02418 78.634C1.22193 81.76 0.614096 84.9327 0.204174 88.134C-0.0328262 89.934 -0.358818 91.694 1.14718 93.052C1.81207 93.6119 2.6529 93.92 3.52218 93.922C5.29218 94.007 7.08618 93.922 8.85618 93.922H94.4562C95.0232 93.922 95.5982 93.951 96.1642 93.922C97.1316 93.9171 98.0593 93.5371 98.7522 92.862C100.111 91.438 99.6602 89.562 99.4262 87.815C97.8172 75.815 93.4612 64.167 85.8972 54.636C79.0622 46.024 69.3452 39.636 58.4392 37.718C55.6007 37.2145 52.7218 36.9748 49.8392 37.002C46.7522 37.033 46.7392 41.833 49.8392 41.802C60.0317 41.6884 69.8778 45.4982 77.3392 52.443C85.3192 59.824 90.4392 69.806 93.1122 80.256C93.8411 83.0879 94.3931 85.9625 94.7652 88.863C94.7778 89.2325 94.8206 89.6004 94.8932 89.963L94.9332 90.331C96.4078 89.525 96.8452 89.1223 96.2452 89.123C96.2212 89.116 96.1912 89.129 96.1662 89.123C95.9667 89.1026 95.7657 89.1026 95.5662 89.123H4.04017C3.8679 89.1065 3.69445 89.1065 3.52218 89.123C3.49418 89.129 3.45817 89.115 3.43017 89.123C4.33617 90.6043 4.78852 90.8843 4.78718 89.963C4.88466 89.4805 4.94284 88.9909 4.96118 88.499C7.70818 67.784 20.3732 46.339 42.3612 42.375C44.8323 41.9491 47.3381 41.7576 49.8452 41.803C52.9262 41.835 52.9292 37.035 49.8372 37.004Z" fill="#1E1E1E"/>
<path d="M63.8001 91.6999C63.7984 93.543 63.4193 95.3663 62.6861 97.0574C61.953 98.7484 60.8813 100.271 59.5372 101.533C58.193 102.794 56.6049 103.766 54.8706 104.39C53.1363 105.014 51.2926 105.277 49.4531 105.161C45.8481 105.182 42.3764 103.8 39.7731 101.306C37.3113 98.7105 35.927 95.277 35.9001 91.6999C35.7891 88.6199 30.9881 88.6049 31.1001 91.6999C31.3771 99.4099 35.6561 106.194 43.0401 108.845C50.0951 111.376 58.6951 109.661 63.7871 104.053C66.8043 100.636 68.51 96.2578 68.6001 91.6999C68.7291 88.6109 63.9291 88.6169 63.8001 91.6999Z" fill="#1E1E1E"/>
</svg>
